HIERARCHY
ROOT Hips
{
  OFFSET 54.7059 95.9841 6.0092
  CHANNELS 6 Xposition Yposition Zposition Zrotation Xrotation Yrotation
  JOINT spine
  {
    OFFSET 0 8.13249 0.467659
    CHANNELS 3 Zrotation Xrotation Yrotation
    JOINT spine1
    {
      OFFSET 0 10.3498 0
      CHANNELS 3 Zrotation Xrotation Yrotation
      JOINT spine2
      {
        OFFSET 0 9.91699 0
        CHANNELS 3 Zrotation Xrotation Yrotation
        JOINT Neck
        {
          OFFSET 0 25.461 1.2139
          CHANNELS 3 Zrotation Xrotation Yrotation
          JOINT Head
          {
            OFFSET 0 7.69245 0
            CHANNELS 3 Zrotation Xrotation Yrotation
            End Site
            {
              OFFSET 0 18.62 -6.14063
            }
          }
        }
        JOINT RightShoulder
        {
          OFFSET -4.17575 10.7096 -0.581445
          CHANNELS 3 Zrotation Xrotation Yrotation
          JOINT RightArm
          {
            OFFSET 0 14.0466 0
            CHANNELS 3 Zrotation Xrotation Yrotation
            JOINT RightArmRoll
            {
              OFFSET 0 7.09098 0
              CHANNELS 3 Zrotation Xrotation Yrotation
              JOINT RightForeArm
              {
                OFFSET 0 20.6535 0
                CHANNELS 3 Zrotation Xrotation Yrotation
                JOINT RightForeArmRoll
                {
                  OFFSET 0 7.95718 0
                  CHANNELS 3 Zrotation Xrotation Yrotation
                  JOINT RightHand
                  {
                    OFFSET 0 15.9683 0
                    CHANNELS 3 Zrotation Xrotation Yrotation
                    End Site
                    {
                      OFFSET 0 0 0
                    }
                  }
                }
              }
            }
          }
        }
        JOINT LeftShoulder
        {
          OFFSET 4.17575 10.7096 -0.581445
          CHANNELS 3 Zrotation Xrotation Yrotation
          JOINT LeftArm
          {
            OFFSET 0 14.0466 0
            CHANNELS 3 Zrotation Xrotation Yrotation
            JOINT LeftArmRoll
            {
              OFFSET 0 7.09098 0
              CHANNELS 3 Zrotation Xrotation Yrotation
              JOINT LeftForeArm
              {
                OFFSET 0 20.6535 0
                CHANNELS 3 Zrotation Xrotation Yrotation
                JOINT LeftForeArmRoll
                {
                  OFFSET 0 7.95718 0
                  CHANNELS 3 Zrotation Xrotation Yrotation
                  JOINT LeftHand
                  {
                    OFFSET 0 15.9683 0
                    CHANNELS 3 Zrotation Xrotation Yrotation
                    End Site
                    {
                      OFFSET 0 0 0
                    }
                  }
                }
              }
            }
          }
        }
      }
    }
  }
  JOINT RightUpLeg
  {
    OFFSET -7.20834 -1.32182 -1.10884
    CHANNELS 3 Zrotation Xrotation Yrotation
    JOINT RightUpLegRoll
    {
      OFFSET 0 18.7238 0
      CHANNELS 3 Zrotation Xrotation Yrotation
      JOINT RightLeg
      {
        OFFSET 0 -23.1866 0
        CHANNELS 3 Zrotation Xrotation Yrotation
        JOINT RightLegRoll
        {
          OFFSET 0 23.2624 0
          CHANNELS 3 Zrotation Xrotation Yrotation
          JOINT RightFoot
          {
            OFFSET 0 19.3621 0
            CHANNELS 3 Zrotation Xrotation Yrotation
            JOINT RightToeBase
            {
              OFFSET 0 16.1857 0
              CHANNELS 3 Zrotation Xrotation Yrotation
              End Site
              {
                OFFSET 0.00686052 7.83862 -0.903522
              }
            }
          }
        }
      }
    }
  }
  JOINT LeftUpLeg
  {
    OFFSET 7.20834 -1.32182 -1.10884
    CHANNELS 3 Zrotation Xrotation Yrotation
    JOINT LeftUpLegRoll
    {
      OFFSET 0 18.7239 0
      CHANNELS 3 Zrotation Xrotation Yrotation
      JOINT LeftLeg
      {
        OFFSET 0 23.1865 0
        CHANNELS 3 Zrotation Xrotation Yrotation
        JOINT LeftLegRoll
        {
          OFFSET 0 23.4775 0
          CHANNELS 3 Zrotation Xrotation Yrotation
          JOINT LeftFoot
          {
            OFFSET 0 19.147 0
            CHANNELS 3 Zrotation Xrotation Yrotation
            JOINT LeftToeBase
            {
              OFFSET 0 16.1857 0
              CHANNELS 3 Zrotation Xrotation Yrotation
              End Site
              {
                OFFSET -0.0307459 7.83863 -0.903522
              }
            }
          }
        }
      }
    }
  }
}
MOTION
Frames: 4
Frame Time: 0.00208333
54.5403 96.0121 5.33357 -1.30653 -3.59529 -0.173615 0.518657 -1.00816 0.0306622 1.03408 1.98723 0.0138917 1.03486 3.63214 -0.00343756 -4.67379 11.7846 -0.035767 3.63139 -1.94989 -0.809167 59.855 -8.81442 -5.49528 109.487 19.0346 23.7272 8.28929e-007 6.52721e-008 -4.86739e-006 3.86762 0.837047 -0.544279 1.1921e-005 1.53228e-006 -3.00408 8.02974 -4.95139 0.697656 -62.2108 -7.15313 4.56597 -108.929 16.5221 -12.5399 -6.6334e-007 2.71169e-007 9.69661e-006 -6.7138 0.0465285 1.10535 -1.21208e-006 3.0592e-007 3.00811 -8.02929 -4.95144 -0.697667 173.483 1.83627 3.17027 180 7.01557e-015 178.968 179.231 12.2411 179.562 -2.93943e-007 -4.95731e-006 0.17194 -19.0455 69.6463 20.9523 8.13649 25.2327 -3.48774 -171.025 0.580673 -2.94957 4.5067e-006 -1.99009e-005 -0.88647 -0.966593 -13.7295 0.529803 5.55242e-006 -2.06791e-007 -0.204947 20.2239 72.2617 -23.6255 -8.13676 25.2366 3.48249 
54.5349 96.0207 5.34423 -1.30455 -3.59607 -0.173653 0.518674 -1.00851 0.0300958 1.03445 1.98756 0.0118841 1.03524 3.63247 -0.00545608 -4.68146 11.7633 -0.0402709 3.64095 -1.9289 -0.814394 59.8472 -8.81812 -5.4974 109.493 19.0341 23.7515 8.28929e-007 6.52721e-008 -4.86739e-006 3.84906 0.844506 -0.544273 1.1921e-005 1.53228e-006 -3.00408 8.02974 -4.95139 0.697656 -62.2186 -7.1464 4.56233 -108.931 16.5049 -12.6194 -6.6334e-007 2.71169e-007 9.69661e-006 -6.67309 0.0465568 1.10875 -1.21208e-006 3.0592e-007 3.00806 -8.02929 -4.95144 -0.697667 173.481 1.8356 3.17004 180 7.01557e-015 178.968 179.233 12.2413 179.562 -2.93943e-007 -4.95731e-006 0.17194 -19.0456 69.6463 20.9512 8.13649 25.2327 -3.48774 -171.029 0.575751 -2.94784 4.5067e-006 -1.99009e-005 -0.886467 -0.967032 -13.7239 0.52979 5.55242e-006 -2.06791e-007 -0.204839 20.2224 72.2609 -23.6225 -8.13676 25.2366 3.48249 
54.5438 96.0201 5.34214 -1.3026 -3.59682 -0.173472 0.518699 -1.0089 0.0295447 1.03485 1.98788 0.00983946 1.03566 3.63279 -0.00751233 -4.68915 11.7419 -0.0447959 3.65047 -1.90744 -0.819665 59.8393 -8.8218 -5.49951 109.498 19.0333 23.7746 8.28929e-007 6.52721e-008 -4.86739e-006 3.83151 0.853259 -0.544426 1.1921e-005 1.53228e-006 -3.00408 8.02974 -4.95139 0.697656 -62.2264 -7.13924 4.55843 -108.932 16.4876 -12.6979 -6.6334e-007 2.71169e-007 9.69661e-006 -6.63282 0.046597 1.1121 -1.21208e-006 3.0592e-007 3.00798 -8.02929 -4.95144 -0.697667 173.48 1.83493 3.16976 180 7.01557e-015 178.968 179.235 12.2415 179.561 -2.93943e-007 -4.95731e-006 0.17194 -19.0456 69.6464 20.9501 8.13649 25.2327 -3.48774 -171.033 0.570787 -2.94611 4.5067e-006 -1.99009e-005 -0.886463 -0.967472 -13.7182 0.529781 5.55242e-006 -2.06791e-007 -0.204727 20.2206 72.2599 -23.6194 -8.13676 25.2366 3.48249 
54.5462 96.0185 5.32894 -1.30066 -3.59754 -0.173136 0.51873 -1.00931 0.0290044 1.03527 1.98819 0.00776894 1.03609 3.6331 -0.00959501 -4.69687 11.7204 -0.0493356 3.65997 -1.88566 -0.824966 59.8314 -8.82548 -5.50161 109.503 19.0322 23.7969 8.28929e-007 6.52721e-008 -4.86739e-006 3.81468 0.862916 -0.544691 1.1921e-005 1.53228e-006 -3.00408 8.02974 -4.95139 0.697656 -62.2342 -7.13177 4.55436 -108.934 16.4703 -12.7758 -6.6334e-007 2.71169e-007 9.69661e-006 -6.59287 0.0466455 1.11541 -1.21208e-006 3.0592e-007 3.0079 -8.02929 -4.95144 -0.697667 173.479 1.83427 3.16945 180 7.01557e-015 178.968 179.237 12.2418 179.561 -2.93943e-007 -4.95731e-006 0.17194 -19.0456 69.6465 20.9489 8.13649 25.2327 -3.48774 -171.037 0.565792 -2.94436 4.5067e-006 -1.99009e-005 -0.886458 -0.967914 -13.7123 0.529773 5.55242e-006 -2.06791e-007 -0.204613 20.2186 72.2589 -23.6162 -8.13676 25.2366 3.48249 
